<svg width="511" height="100" viewBox="0 0 511 100" fill="none" xmlns="http://www.w3.org/2000/svg">
<rect width="510" height="100" transform="translate(0.666687)" fill="white"/>
<path d="M157.667 70.8L157.467 70.9C152.767 74.7 146.667 76.8 140.267 76.8C124.567 76.8 114.067 66 114.067 49.9C114.067 34.1 124.367 23 138.967 23C145.667 23 150.967 24.6 155.567 28L155.767 28.1L159.767 21.6L159.667 21.5C154.667 17.2 147.467 14.9 138.967 14.9C128.767 14.9 120.167 18.4 114.067 25.1C108.267 31.4 105.067 40.2 105.067 49.9C105.067 70.8 118.967 84.9 139.567 84.9C148.067 84.9 156.567 81.9 161.067 77.3L161.167 77.2L157.667 70.8Z" fill="#333236"/>
<path d="M201.967 15.1C192.267 15.1 183.467 18.7 177.067 25.2C170.767 31.6 167.267 40.5 167.267 50.1C167.267 70.4 181.867 85.1 201.967 85.1C211.567 85.1 220.367 81.6 226.667 75.2C233.067 68.8 236.567 59.9 236.567 50.1C236.667 29.8 222.067 15.1 201.967 15.1ZM227.567 50C227.567 65.6 216.767 76.9 201.967 76.9C194.967 76.9 188.567 74.2 183.767 69.2C178.967 64.2 176.367 57.4 176.367 50C176.367 42.5 178.967 35.6 183.667 30.7C188.367 25.8 194.867 23.1 201.967 23.1C216.567 23.2 227.567 34.7 227.567 50Z" fill="#333236"/>
<path d="M257.667 16H249.067V84H257.667V16Z" fill="#333236"/>
<path d="M323.567 16V69L281.667 16.1L281.567 16H274.767V84.1H282.867V31.3L324.767 84.1H331.667V16H323.567Z" fill="#333236"/>
<path d="M381.167 49.7C378.167 46.5 373.867 44.5 369.167 43.9L384.567 22.3V16.1H347.467V24.2H373.767L357.067 49.5H358.567C370.267 49.5 377.767 55.1 377.767 63.8C377.767 71.2 371.967 77 364.567 77C358.467 77 352.967 73.8 349.067 68L348.967 67.7L344.267 73.5L344.367 73.6C348.667 82 357.767 85 364.967 85C377.467 85 386.467 76.1 386.467 63.7C386.367 58.1 384.567 53.2 381.167 49.7Z" fill="#333236"/>
<path d="M419.767 42C412.867 42 407.467 44.9 404.267 50.1C407.767 33 420.267 24 430.867 21.3L431.067 21.2L427.667 15H427.567C419.567 16.9 411.467 22.1 405.467 29.4C400.467 35.4 394.567 45.5 394.567 59.9C394.567 66.7 396.767 73 400.667 77.5C404.967 82.4 411.067 85 418.167 85C428.567 85 439.267 76.8 439.267 63C439.267 50.8 431.067 42 419.767 42ZM430.667 63.6C430.667 71.1 425.167 76.9 418.067 76.9C411.167 76.9 403.067 72.5 403.067 59.9C404.767 54.8 409.767 49.6 417.067 49.6C425.367 49.7 430.667 55.1 430.667 63.6Z" fill="#333236"/>
<path d="M469.467 15.3C455.167 15.3 447.367 27.7 447.367 50.1C447.367 60.7 449.167 69.2 452.767 75.1C456.567 81.6 462.267 84.8 469.767 84.8C483.867 84.8 491.667 72.4 491.667 50C491.567 27.6 483.767 15.3 469.467 15.3ZM483.067 50C483.067 68.5 478.867 77.2 469.767 77.2C460.667 77.2 456.067 68.1 456.067 50C456.067 31.7 460.467 22.8 469.567 22.8C478.767 22.9 483.067 31.5 483.067 50Z" fill="#333236"/>
<path d="M62.1667 16H19.6667V83.9001H62.1667V16Z" fill="#8CBF84"/>
<path d="M87.6667 16H70.6667V58.4376H87.6667V16Z" fill="#DE7875"/>
<path d="M87.6667 67.025H70.6667V84H87.6667V67.025Z" fill="#5C8456"/>
</svg>
